<svg width="40" height="40" viewBox="0 0 40 40" fill="none" xmlns="http://www.w3.org/2000/svg">
  <rect width="40" height="40" rx="10" fill="#283C6E"/>
  <path d="M4.98698 24.5312L4.98698 27.8646L11.6536 27.8646L11.6536 24.5312L8.32031 24.5312L4.98698 24.5312ZM8.32031 24.5312L11.6536 24.5312L11.6536 11.6406L8.32031 11.6406L4.98698 11.6406L4.98698 24.5312L8.32031 24.5312Z" fill="white"/>
  <path d="M35.0911 15.3516L35.0911 12.0182L28.4245 12.0182L28.4245 15.3516L31.7578 15.3516L35.0911 15.3516ZM31.7578 28.3594L35.0911 28.3594L35.0911 15.3516L31.7578 15.3516L28.4245 15.3516L28.4245 28.3594L31.7578 28.3594Z" fill="white"/>
  <path d="M11.6816 8.22925H23.4003" stroke="white" stroke-width="6.66667"/>
  <path d="M16.7031 31.6667L28.4218 31.6667" stroke="white" stroke-width="6.66667"/>
  <circle cx="20" cy="19.8438" r="4.6875" fill="#283C6E"/>
  <circle cx="20" cy="19.8438" r="4.6875" fill="white"/>
</svg>
